<?xml version="1.0" encoding="utf-8"?>
<!-- Generator: Adobe Illustrator 24.1.1, SVG Export Plug-In . SVG Version: 6.00 Build 0)  -->
<svg version="1.1" id="Layer_1" xmlns="http://www.w3.org/2000/svg" xmlns:xlink="http://www.w3.org/1999/xlink" x="0px" y="0px"
	 viewBox="0 0 42 44" style="enable-background:new 0 0 42 44;" xml:space="preserve">
<g>
	<g>
		<g>
			<path d="M20.73,13.58h2.31c0.26,0,0.41,0.15,0.41,0.41v17.12c0,0.26-0.15,0.41-0.41,0.41h-2.15c-0.26,0-0.41-0.15-0.41-0.41
				V16.58c0-0.1-0.08-0.15-0.18-0.13l-2.38,0.67c-0.28,0.08-0.46-0.08-0.46-0.36v-1.49c0-0.23,0.1-0.36,0.31-0.46l2.49-1.13
				C20.4,13.61,20.55,13.58,20.73,13.58z"/>
		</g>
	</g>
	<path d="M21,40c-9.93,0-18-8.08-18-18S11.07,4,21,4s18,8.07,18,18S30.93,40,21,40z M21,6C12.18,6,5,13.18,5,22
		c0,8.82,7.18,16,16,16c8.82,0,16-7.18,16-16C37,13.18,29.82,6,21,6z"/>
</g>
</svg>
