<?xml version="1.0" encoding="utf-8"?>
<!-- Generator: Adobe Illustrator 24.1.1, SVG Export Plug-In . SVG Version: 6.00 Build 0)  -->
<svg version="1.1" id="Layer_1" xmlns="http://www.w3.org/2000/svg" xmlns:xlink="http://www.w3.org/1999/xlink" x="0px" y="0px"
	 viewBox="0 0 42 44" style="enable-background:new 0 0 42 44;" xml:space="preserve">
<g>
	<path d="M21,40c-9.93,0-18-8.08-18-18S11.07,4,21,4s18,8.07,18,18S30.93,40,21,40z M21,6C12.18,6,5,13.18,5,22
		c0,8.82,7.18,16,16,16c8.82,0,16-7.18,16-16C37,13.18,29.82,6,21,6z"/>
</g>
<g>
	<path d="M26.67,25.15c0,1-0.21,1.79-0.46,2.54c-0.77,2.13-2.64,3.38-5.23,3.38c-2.56,0-4.51-1.41-5.28-3.56
		c-0.21-0.64-0.31-1.33-0.36-1.97c0-0.26,0.15-0.41,0.41-0.41h2.18c0.26,0,0.41,0.13,0.44,0.41c0.03,0.41,0.1,0.87,0.21,1.21
		c0.33,1.08,1.18,1.77,2.41,1.77c1.15,0,1.92-0.54,2.31-1.54c0.26-0.54,0.38-1.21,0.38-1.9c0-0.85-0.15-1.59-0.44-2.18
		c-0.41-0.95-1.18-1.44-2.28-1.44c-0.33,0-0.67,0.13-1.03,0.33c-0.23,0.13-0.41,0.1-0.56-0.1l-1.08-1.36
		c-0.15-0.21-0.13-0.41,0.05-0.59l4.13-4.08c0.1-0.1,0.05-0.18-0.08-0.18h-6.36c-0.26,0-0.41-0.15-0.41-0.41v-1.74
		c0-0.26,0.15-0.41,0.41-0.41h10.02c0.26,0,0.41,0.15,0.41,0.41v1.92c0,0.21-0.08,0.36-0.21,0.51l-3.67,3.72
		c-0.08,0.08-0.03,0.18,0.13,0.21c1.72,0.26,2.82,1.23,3.43,2.64C26.49,23.13,26.67,24.08,26.67,25.15z"/>
</g>
</svg>
