<?xml version="1.0" encoding="utf-8"?>
<!-- Generator: Adobe Illustrator 24.1.1, SVG Export Plug-In . SVG Version: 6.00 Build 0)  -->
<svg version="1.1" id="Layer_1" xmlns="http://www.w3.org/2000/svg" xmlns:xlink="http://www.w3.org/1999/xlink" x="0px" y="0px"
	 viewBox="0 0 42 44" style="enable-background:new 0 0 42 44;" xml:space="preserve">
<style type="text/css">
	.st0{fill:#FFFFFF;}
</style>
<g>
	<path class="st0" d="M21,40c-9.9,0-18-8.1-18-18S11.1,4,21,4s18,8.1,18,18S30.9,40,21,40z M21,6C12.2,6,5,13.2,5,22s7.2,16,16,16
		s16-7.2,16-16S29.8,6,21,6z"/>
</g>
<g>
	<path class="st0" d="M15.1,31.1v-1.7c0-0.2,0.1-0.3,0.2-0.5c2.1-2.2,3.9-4.4,5.7-6.5c1.4-1.7,2.4-3.1,2.4-4.1
		c0-1.4-1.1-2.4-2.7-2.4s-2.6,1-2.6,2.4v0.6c0,0.3-0.1,0.4-0.4,0.4h-2.2c-0.3,0-0.4-0.1-0.4-0.4v-1c0.1-2.8,2.5-4.6,5.6-4.6
		c3.5,0,5.7,2.1,5.7,4.9c0,1.5-0.8,3.1-2.2,4.8c-1.4,1.8-3.1,3.7-4.9,5.7c-0.1,0.1,0,0.2,0.1,0.2h7.1c0.3,0,0.4,0.1,0.4,0.4v1.7
		c0,0.3-0.1,0.4-0.4,0.4H15.5C15.2,31.5,15.1,31.4,15.1,31.1z"/>
</g>
</svg>
