<?xml version="1.0" encoding="utf-8"?>
<!-- Generator: Adobe Illustrator 24.1.1, SVG Export Plug-In . SVG Version: 6.00 Build 0)  -->
<svg version="1.1" id="Layer_1" xmlns="http://www.w3.org/2000/svg" xmlns:xlink="http://www.w3.org/1999/xlink" x="0px" y="0px"
	 viewBox="0 0 42 44" style="enable-background:new 0 0 42 44;" xml:space="preserve">
<style type="text/css">
	.st0{fill:#FFFFFF;}
</style>
<g>
	<g>
		<g>
			<path class="st0" d="M20.7,13.6H23c0.3,0,0.4,0.1,0.4,0.4v17.1c0,0.3-0.1,0.4-0.4,0.4h-2.1c-0.3,0-0.4-0.1-0.4-0.4V16.6
				c0-0.1-0.1-0.1-0.2-0.1l-2.4,0.7c-0.3,0.1-0.5-0.1-0.5-0.4v-1.5c0-0.2,0.1-0.4,0.3-0.5l2.5-1.1C20.4,13.6,20.5,13.6,20.7,13.6z"
				/>
		</g>
	</g>
	<path class="st0" d="M21,40c-9.9,0-18-8.1-18-18S11.1,4,21,4s18,8.1,18,18S30.9,40,21,40z M21,6C12.2,6,5,13.2,5,22s7.2,16,16,16
		s16-7.2,16-16S29.8,6,21,6z"/>
</g>
</svg>
