<?xml version="1.0" encoding="utf-8"?>
<!-- Generator: Adobe Illustrator 24.1.1, SVG Export Plug-In . SVG Version: 6.00 Build 0)  -->
<svg version="1.1" id="Layer_1" xmlns="http://www.w3.org/2000/svg" xmlns:xlink="http://www.w3.org/1999/xlink" x="0px" y="0px"
	 viewBox="0 0 42 44" style="enable-background:new 0 0 42 44;" xml:space="preserve">
<g>
	<path d="M21,40c-9.93,0-18-8.08-18-18S11.07,4,21,4s18,8.07,18,18S30.93,40,21,40z M21,6C12.18,6,5,13.18,5,22
		c0,8.82,7.18,16,16,16c8.82,0,16-7.18,16-16C37,13.18,29.82,6,21,6z"/>
</g>
<g>
	<path d="M15.07,31.12v-1.69c0-0.21,0.05-0.33,0.21-0.49c2.05-2.21,3.9-4.43,5.67-6.46c1.44-1.67,2.36-3.1,2.36-4.15
		c0-1.41-1.08-2.38-2.67-2.38c-1.59,0-2.64,0.97-2.64,2.44v0.56c0,0.26-0.15,0.41-0.41,0.41H15.4c-0.26,0-0.41-0.15-0.41-0.41v-1
		c0.13-2.79,2.49-4.56,5.64-4.56c3.51,0,5.67,2.15,5.67,4.9c0,1.49-0.79,3.08-2.23,4.84c-1.44,1.82-3.13,3.67-4.92,5.67
		c-0.1,0.1-0.05,0.18,0.08,0.18h7.08c0.26,0,0.41,0.15,0.41,0.41v1.74c0,0.26-0.15,0.41-0.41,0.41H15.48
		C15.22,31.53,15.07,31.38,15.07,31.12z"/>
</g>
</svg>
