<?xml version="1.0" encoding="utf-8"?>
<!-- Generator: Adobe Illustrator 24.1.1, SVG Export Plug-In . SVG Version: 6.00 Build 0)  -->
<svg version="1.1" id="Layer_1" xmlns="http://www.w3.org/2000/svg" xmlns:xlink="http://www.w3.org/1999/xlink" x="0px" y="0px"
	 viewBox="0 0 42 44" style="enable-background:new 0 0 42 44;" xml:space="preserve">
<style type="text/css">
	.st0{fill:#FFFFFF;}
</style>
<g>
	<path class="st0" d="M21,40c-9.9,0-18-8.1-18-18S11.1,4,21,4s18,8.1,18,18S30.9,40,21,40z M21,6C12.2,6,5,13.2,5,22s7.2,16,16,16
		s16-7.2,16-16S29.8,6,21,6z"/>
</g>
<g>
	<path class="st0" d="M26.7,25.1c0,1-0.2,1.8-0.5,2.5C25.4,29.7,23.6,31,21,31s-4.5-1.4-5.3-3.6c-0.2-0.6-0.3-1.3-0.4-2
		c0-0.3,0.1-0.4,0.4-0.4h2.2c0.3,0,0.4,0.1,0.4,0.4c0,0.4,0.1,0.9,0.2,1.2c0.3,1.1,1.2,1.8,2.4,1.8c1.1,0,1.9-0.5,2.3-1.5
		c0.3-0.5,0.4-1.2,0.4-1.9c0-0.9-0.1-1.6-0.4-2.2c-0.4-1-1.2-1.4-2.3-1.4c-0.3,0-0.7,0.1-1,0.3c-0.2,0.1-0.4,0.1-0.6-0.1l-1.1-1.4
		c-0.1-0.2-0.1-0.4,0-0.6l4.1-4.1c0.1-0.1,0-0.2-0.1-0.2H16c-0.3,0-0.4-0.1-0.4-0.4v-1.7c0-0.3,0.1-0.4,0.4-0.4h10
		c0.3,0,0.4,0.1,0.4,0.4v1.9c0,0.2-0.1,0.4-0.2,0.5l-3.7,3.7c-0.1,0.1,0,0.2,0.1,0.2c1.7,0.3,2.8,1.2,3.4,2.6
		C26.5,23.1,26.7,24.1,26.7,25.1z"/>
</g>
</svg>
