<?xml version="1.0" encoding="utf-8"?>
<!-- Generator: Adobe Illustrator 24.1.1, SVG Export Plug-In . SVG Version: 6.00 Build 0)  -->
<svg version="1.1" id="Layer_1" xmlns="http://www.w3.org/2000/svg" xmlns:xlink="http://www.w3.org/1999/xlink" x="0px" y="0px"
	 viewBox="0 0 457.58 422.84" style="enable-background:new 0 0 457.58 422.84;" xml:space="preserve">
<style type="text/css">
	.st0{fill:#F2F2F2;}
	.st1{fill:#EB6607;}
</style>
<g>
	<g>
		<path class="st0" d="M154.51,254.74h74.27v37.13h-74.27V254.74z"/>
		<path class="st0" d="M241.15,143.34h86.64v49.51h-86.64V143.34z"/>
		<path class="st0" d="M241.15,254.74h86.64v37.13h-86.64V254.74z"/>
		<path class="st0" d="M290.66,205.23h74.27v37.13h-74.27V205.23z"/>
		<path class="st0" d="M290.66,304.25h74.27v37.13h-74.27V304.25z"/>
		<path class="st0" d="M154.51,304.25h43.32v37.13h-43.32V304.25z"/>
		<path class="st0" d="M216.4,205.23h61.89v37.13H216.4V205.23z"/>
		<path class="st0" d="M377.31,205.23h43.32v37.13h-43.32V205.23z"/>
		<path class="st0" d="M340.17,254.74h80.46v37.13h-80.46V254.74z"/>
		<path class="st0" d="M154.51,384.71c0,10.25,8.31,18.57,18.57,18.57h55.7v-49.51h-74.27V384.71z"/>
		<path class="st0" d="M402.06,143.34h-61.89v49.51h80.46v-30.94C420.63,151.65,412.32,143.34,402.06,143.34z"/>
		<path class="st0" d="M228.77,143.34h-55.7c-10.25,0-18.57,8.31-18.57,18.57v30.94h74.27V143.34z"/>
		<path class="st0" d="M340.17,403.28h61.89c10.25,0,18.57-8.31,18.57-18.57v-30.94h-80.46V403.28z"/>
		<path class="st0" d="M241.15,353.76h86.64v49.51h-86.64V353.76z"/>
		<path class="st0" d="M210.21,304.25h68.08v37.13h-68.08V304.25z"/>
		<path class="st0" d="M377.31,304.25h43.32v37.13h-43.32V304.25z"/>
		<path class="st0" d="M154.51,205.23h49.51v37.13h-49.51V205.23z"/>
	</g>
	<path class="st1" d="M185.71,168.1H126.8v-38.01c10.9-2.81,18.52-12.62,18.57-23.88V44.32c0-13.67-11.08-24.76-24.76-24.76
		S95.86,30.65,95.86,44.32v61.89c0.04,11.25,7.67,21.06,18.57,23.88v38.01H55.52c-10.25,0-18.57,8.31-18.57,18.57
		c0,3.29,0.87,6.52,2.53,9.36l75.78,129.89c1.72,2.95,5.51,3.95,8.46,2.23c0.92-0.54,1.69-1.31,2.23-2.23l75.78-129.89
		c5.17-8.86,2.18-20.23-6.68-25.39C192.22,168.97,188.99,168.1,185.71,168.1z M108.23,106.21V44.32c0-6.84,5.54-12.38,12.38-12.38
		c6.84,0,12.38,5.54,12.38,12.38v61.89c0,6.84-5.54,12.38-12.38,12.38C113.78,118.59,108.23,113.05,108.23,106.21z M191.05,189.76
		l-70.44,120.78L50.17,189.76c-1.71-2.96-0.69-6.75,2.27-8.45c0.94-0.54,2-0.83,3.08-0.83h130.19c3.42,0.01,6.18,2.78,6.18,6.2
		C191.88,187.76,191.59,188.82,191.05,189.76L191.05,189.76z"/>
	<path class="st1" d="M315.42,50.51h-24.76V38.13c0-10.25-8.31-18.57-18.57-18.57h-37.13c-10.25,0-18.57,8.31-18.57,18.57v12.38
		h-49.51c-3.42,0-6.19,2.77-6.19,6.19c0,0.67,0.11,1.33,0.32,1.96l15.78,47.24c2.53,7.57,9.61,12.69,17.59,12.69h22.01V279.5
		c0,6.84,5.54,12.38,12.38,12.38h49.51c6.84,0,12.38-5.54,12.38-12.38V118.59h24.76c10.25,0,18.57-8.31,18.57-18.57V69.08
		C333.99,58.82,325.67,50.51,315.42,50.51z M228.77,38.13c0-3.42,2.77-6.19,6.19-6.19h37.13c3.42,0,6.19,2.77,6.19,6.19v12.38
		h-49.51V38.13z M278.29,279.5h-49.51V118.59h49.51V279.5z M321.61,100.02c0,3.42-2.77,6.19-6.19,6.19H194.38
		c-2.65-0.02-5-1.72-5.84-4.23l-13.06-39.09h139.94c3.42,0,6.19,2.77,6.19,6.19V100.02z"/>
</g>
</svg>
