<?xml version="1.0" encoding="utf-8"?>
<!-- Generator: Adobe Illustrator 24.1.1, SVG Export Plug-In . SVG Version: 6.00 Build 0)  -->
<svg version="1.1" id="Layer_1" xmlns="http://www.w3.org/2000/svg" xmlns:xlink="http://www.w3.org/1999/xlink" x="0px" y="0px"
	 viewBox="0 0 30 30" style="enable-background:new 0 0 30 30;" xml:space="preserve">
<style type="text/css">
	.st0{fill:#FFFFFF;}
	.st1{fill:#3C3C3C;}
</style>
<g>
	<circle class="st0" cx="15" cy="15" r="14.5"/>
	<path class="st1" d="M15,24.55c-0.83,0-1.51-0.68-1.51-1.51s0.68-1.51,1.51-1.51c3.6,0,6.54-2.93,6.54-6.54
		c0-3.6-2.93-6.54-6.54-6.54c-3.6,0-6.54,2.93-6.54,6.54c0,0.83-0.68,1.51-1.51,1.51S5.45,15.83,5.45,15c0-5.27,4.29-9.55,9.55-9.55
		s9.55,4.29,9.55,9.55S20.27,24.55,15,24.55z"/>
	<path class="st1" d="M17.46,26.77c-0.25,0-0.5-0.06-0.73-0.19l-3.49-1.95c-0.35-0.19-0.6-0.52-0.71-0.9
		c-0.11-0.38-0.06-0.79,0.13-1.14l1.95-3.49c0.4-0.72,1.32-0.98,2.04-0.58c0.72,0.4,0.98,1.32,0.58,2.04l-1.22,2.18l2.18,1.22
		c0.72,0.4,0.98,1.32,0.58,2.04C18.5,26.49,17.99,26.77,17.46,26.77z"/>
</g>
</svg>
