<?xml version="1.0" encoding="utf-8"?>
<!-- Generator: Adobe Illustrator 24.1.1, SVG Export Plug-In . SVG Version: 6.00 Build 0)  -->
<svg version="1.1" id="Layer_1" xmlns="http://www.w3.org/2000/svg" xmlns:xlink="http://www.w3.org/1999/xlink" x="0px" y="0px"
	 viewBox="0 0 457.58 422.84" style="enable-background:new 0 0 457.58 422.84;" xml:space="preserve">
<style type="text/css">
	.st0{fill:#F2F2F2;}
	.st1{fill:#EB6607;}
</style>
<g>
	<path class="st0" d="M108.84,199.12c0,2.33,1.32,4.46,3.4,5.51l144.23,72.11v39.69c-23.54,3.4-39.86,25.23-36.47,48.77
		c3.4,23.54,25.23,39.86,48.77,36.47c21.18-3.06,36.91-21.21,36.91-42.61c0-3.4-2.75-6.15-6.15-6.15s-6.15,2.75-6.15,6.15
		c0,16.99-13.77,30.76-30.76,30.76s-30.76-13.77-30.76-30.76c0-16.99,13.77-30.76,30.76-30.76c3.4,0,6.15-2.75,6.15-6.15v-45.41
		L413,204.65c2.1-1.05,3.41-3.19,3.4-5.54v-49.21H108.84V199.12z"/>
	<path class="st0" d="M397.95,94.55H127.29c-10.19,0-18.45,8.26-18.45,18.45v24.61h307.57V113
		C416.41,102.81,408.14,94.55,397.95,94.55z"/>
	<path class="st1" d="M336.44,137.6h-36.91v-30.76h30.76c3.4,0,6.15-2.75,6.15-6.15V39.18c-0.17-3.32-2.83-5.98-6.15-6.15H151.9
		v-6.15c0-3.4-2.75-6.15-6.15-6.15H71.93C54.95,20.75,41.2,34.51,41.18,51.49V113c0,3.4,2.75,6.15,6.15,6.15h6.15v166.09h-6.15
		c-3.4,0-6.15,2.75-6.15,6.15v30.76c0,3.4,2.75,6.15,6.15,6.15h98.42c3.4,0,6.15-2.75,6.15-6.15v-30.76c0-3.4-2.75-6.15-6.15-6.15
		h-6.15V119.15h6.15c3.4,0,6.15-2.75,6.15-6.15v-6.15h135.33v30.76h-36.91c-6.79,0-12.3,5.51-12.3,12.3v24.61
		c0,2.56,1.59,4.86,3.99,5.76l45.22,16.95v2.66c-13.16,3.4-21.07,16.82-17.67,29.98c3.4,13.16,16.82,21.07,29.98,17.67
		c10.86-2.8,18.45-12.6,18.45-23.82c0-3.4-2.75-6.15-6.15-6.15s-6.15,2.75-6.15,6.15c0,6.79-5.51,12.3-12.3,12.3
		c-6.79,0-12.3-5.51-12.3-12.3s5.51-12.3,12.3-12.3c3.4,0,6.15-2.75,6.15-6.15v-8.04l45.22-16.95c2.4-0.9,3.99-3.2,3.99-5.76v-24.61
		C348.74,143.11,343.23,137.6,336.44,137.6z M139.6,315.99H53.48v-18.45h86.12V315.99z M121.23,162.21l-55.45,32.35v-64.7
		L121.23,162.21z M71.84,119.15h55.45v32.35L71.84,119.15z M127.29,172.92v64.7l-55.45-32.35L127.29,172.92z M121.23,248.33
		l-55.45,32.35v-64.7L121.23,248.33z M127.29,259.04v26.2h-44.9L127.29,259.04z M139.6,106.85H53.48V51.49
		c0-10.19,8.26-18.45,18.45-18.45h67.66V106.85z M324.14,94.55h-19.89l19.89-33.16V94.55z M151.9,45.33h19.89L151.9,78.49V45.33z
		 M156.61,94.55l26.04-43.4l26.04,43.4H156.61z M193.52,45.33h52.09l-26.04,43.4L193.52,45.33z M230.43,94.55l26.04-43.4l26.04,43.4
		H230.43z M267.33,45.33h52.09l-26.04,43.4L267.33,45.33z M336.44,170.25l-43.06,16.15l-43.06-16.15v-20.34h86.12V170.25z"/>
</g>
</svg>
