<?xml version="1.0" encoding="utf-8"?>
<!-- Generator: Adobe Illustrator 24.1.1, SVG Export Plug-In . SVG Version: 6.00 Build 0)  -->
<svg version="1.1" id="Layer_1" xmlns="http://www.w3.org/2000/svg" xmlns:xlink="http://www.w3.org/1999/xlink" x="0px" y="0px"
	 viewBox="0 0 320 58" style="enable-background:new 0 0 320 58;" xml:space="preserve">
<style type="text/css">
	.st0{fill:#F26F21;}
	.st1{fill:#EB6607;}
</style>
<g>
	<g>
		<g>
			<polygon points="135.84,12.7 128.9,12.7 126.49,16.87 133.43,16.87 			"/>
			<path d="M168.34,19.3h-40.97c-3.11,0-5.5,1.05-7.34,2.9c-2.79,2.82-2.87,5.69-2.87,11.69c0,6.01,0.08,8.88,2.87,11.69
				c1.84,1.85,4.23,2.9,7.34,2.9h11.31l2.8-4.86h-14.11c-1.69,0-2.88-0.45-3.88-1.46c-1.11-1.12-1.4-2.08-1.46-6.19h14.31l2.41-4.17
				h-16.72c0.06-4.1,0.35-5.07,1.46-6.19c1-1.01,2.2-1.46,3.88-1.46h22.95v24.36h4.86V24.17h10.35L168.34,19.3z"/>
			<polygon points="109.85,19.31 99.24,37.67 88.63,19.31 83.78,19.31 83.77,19.31 83.77,48.5 88.63,48.5 88.63,27.71 99.24,46.06 
				109.85,27.71 109.85,48.5 114.71,48.5 114.71,19.31 114.71,19.31 			"/>
			<path d="M241.71,22.21c-1.84-1.85-4.23-2.9-7.34-2.9h-3.92c-3.11,0-5.51,1.05-7.34,2.9c-2.79,2.82-2.87,5.69-2.87,11.69
				c0,6.01,0.08,8.88,2.87,11.69c1.84,1.85,4.23,2.9,7.34,2.9h3.92c3.11,0,5.5-1.05,7.34-2.9c2.79-2.82,2.87-5.69,2.87-11.69
				C244.58,27.9,244.5,25.03,241.71,22.21z M238.25,42.17c-1,1.01-2.2,1.46-3.88,1.46h-3.92c-1.69,0-2.89-0.45-3.88-1.46
				c-1.28-1.29-1.47-2.37-1.47-8.27c0-5.9,0.19-6.98,1.47-8.27c1-1.01,2.2-1.46,3.88-1.46h3.92c1.69,0,2.88,0.45,3.88,1.46
				c1.27,1.29,1.47,2.37,1.47,8.27C239.71,39.8,239.52,40.88,238.25,42.17z"/>
			<path d="M180.85,19.3h-3.92c-3.11,0-5.5,1.05-7.34,2.9c-2.79,2.82-2.87,5.69-2.87,11.69c0,6.01,0.08,8.88,2.87,11.69
				c1.83,1.85,4.23,2.9,7.34,2.9h3.92c3.11,0,5.51-1.05,7.34-2.9c2.79-2.82,2.87-5.69,2.87-11.69c0-6-0.08-8.87-2.87-11.69
				C186.35,20.35,183.96,19.3,180.85,19.3z M184.73,42.17c-1,1.01-2.2,1.46-3.88,1.46h-3.92c-1.69,0-2.89-0.45-3.88-1.46
				c-1.28-1.29-1.47-2.37-1.47-8.27c0-5.9,0.19-6.98,1.47-8.27c1-1.01,2.2-1.46,3.88-1.46h3.92c1.69,0,2.89,0.45,3.88,1.46
				c1.27,1.29,1.46,2.37,1.46,8.27C186.2,39.8,186.01,40.88,184.73,42.17z"/>
			<path d="M207.62,19.3h-14.11V48.5l14.11,0c3.11,0,5.51-1.05,7.34-2.9c2.79-2.82,2.87-5.69,2.87-11.69c0-6-0.08-8.87-2.87-11.69
				C213.13,20.35,210.74,19.3,207.62,19.3z M211.51,42.17c-1,1.01-2.2,1.46-3.88,1.46h-9.25V24.17h9.25c1.69,0,2.88,0.45,3.88,1.46
				c1.28,1.29,1.47,2.37,1.47,8.27C212.97,39.8,212.78,40.88,211.51,42.17z"/>
		</g>
		<path class="st0" d="M53.9,9.48l-9.67,16.75L34.55,9.48l-22.52,39h23.58l8.62-14.93l8.62,14.93h23.58L53.9,9.48z M54.96,44.82
			l-8.62-14.93l7.56-13.1l16.17,28.03H54.96z M18.37,44.82l16.18-28.03l7.56,13.1l-8.62,14.93H18.37z"/>
	</g>
	<g>
		<path class="st1" d="M247.43,45.57c0-0.87,0.76-1.56,1.63-1.56c0.84,0,1.63,0.69,1.63,1.56c0,0.87-0.76,1.6-1.63,1.6
			C248.16,47.17,247.43,46.44,247.43,45.57z"/>
		<path class="st1" d="M260.7,46.37c0.18,0,0.29,0.11,0.29,0.29v0.44c0,0.18-0.11,0.29-0.29,0.29h-0.87c-2.87,0-4.91-0.84-4.91-4.54
			V30.27c0-0.07-0.04-0.11-0.11-0.11h-2.33c-0.18,0-0.29-0.11-0.29-0.29v-0.4c0-0.18,0.11-0.29,0.29-0.29h2.33
			c0.07,0,0.11-0.04,0.11-0.11v-4.21c0-0.18,0.11-0.29,0.29-0.29h0.47c0.18,0,0.29,0.11,0.29,0.29v4.21c0,0.07,0.04,0.11,0.11,0.11
			h4.54c0.18,0,0.29,0.11,0.29,0.29v0.4c0,0.18-0.11,0.29-0.29,0.29h-4.54c-0.07,0-0.11,0.04-0.11,0.11v12.5
			c0,2.8,1.34,3.6,3.92,3.6H260.7z"/>
		<path class="st1" d="M274.87,43.31c0.04-0.07,0.04-0.11,0.07-0.15c0.04-0.07,0.15-0.15,0.22-0.11c0.07,0,0.11,0,0.14,0l0.36,0.07
			c0.18,0.04,0.26,0.18,0.18,0.36c-0.87,2.43-3.2,4.18-6.39,4.18c-3.34,0-5.67-1.92-6.43-4.72c-0.33-1.24-0.33-2.69-0.33-4.72
			c0-2.07,0.04-3.34,0.29-4.51c0.65-2.87,3.05-4.83,6.47-4.83c3.52,0,5.96,2.03,6.57,5.01c0.22,0.95,0.22,1.64,0.22,4.32
			c0,0.18-0.11,0.29-0.29,0.29h-12.06c-0.07,0-0.11,0.04-0.11,0.11c0,1.82,0,3.05,0.18,3.74c0.47,2.54,2.51,4.29,5.52,4.29
			C272.14,46.66,274.1,45.31,274.87,43.31z M263.97,34.16c-0.15,0.69-0.18,1.85-0.18,3.31c0,0.07,0.04,0.11,0.11,0.11h11.15
			c0.07,0,0.11-0.04,0.11-0.11c0-1.38-0.04-2.62-0.18-3.27c-0.51-2.51-2.54-4.29-5.52-4.29C266.44,29.91,264.44,31.69,263.97,34.16z
			"/>
		<path class="st1" d="M279.34,42.88c-0.33-1.2-0.44-2.62-0.44-4.65c0-2.11,0.15-3.38,0.44-4.54c0.69-2.83,3.09-4.8,6.47-4.8
			c3.42,0,5.92,2,6.54,4.43c0.07,0.33,0.14,0.69,0.18,0.98c0.04,0.18-0.07,0.29-0.25,0.33l-0.51,0.04
			c-0.22,0.04-0.29-0.07-0.33-0.25l-0.11-0.58c-0.44-2.14-2.54-3.92-5.52-3.92c-3.01,0-5.05,1.78-5.52,4.29
			c-0.14,0.76-0.29,2.25-0.29,4.07c0,2.03,0.15,3.34,0.29,4.11c0.51,2.54,2.51,4.29,5.52,4.29c2.98,0,5.2-1.78,5.56-3.96
			c0.04-0.07,0-0.11,0.04-0.15c0-0.07,0-0.11,0-0.15c0.04-0.15,0.18-0.18,0.33-0.18l0.47,0.04c0.18,0.04,0.26,0.11,0.26,0.25
			c0,0.07,0,0.11,0,0.14c0,0.15-0.04,0.33-0.11,0.58c-0.54,2.51-3.16,4.43-6.54,4.43C282.43,47.67,280.06,45.71,279.34,42.88z"/>
		<path class="st1" d="M307.97,35.03v12.06c0,0.18-0.11,0.29-0.29,0.29h-0.51c-0.18,0-0.29-0.11-0.29-0.29V35.21
			c0-3.12-2.14-5.27-5.2-5.27c-3.27,0-5.41,2.11-5.41,5.19v11.95c0,0.18-0.11,0.29-0.29,0.29h-0.51c-0.18,0-0.29-0.11-0.29-0.29
			V22.24c0-0.18,0.11-0.29,0.29-0.29h0.51c0.18,0,0.29,0.11,0.29,0.29v9.41c0,0.11,0.07,0.15,0.11,0.07c1.05-1.78,2.94-2.8,5.45-2.8
			C305.46,28.93,307.97,31.4,307.97,35.03z"/>
	</g>
</g>
</svg>
