<?xml version="1.0" encoding="utf-8"?>
<!-- Generator: Adobe Illustrator 24.1.1, SVG Export Plug-In . SVG Version: 6.00 Build 0)  -->
<svg version="1.1" id="Layer_1" xmlns="http://www.w3.org/2000/svg" xmlns:xlink="http://www.w3.org/1999/xlink" x="0px" y="0px"
	 viewBox="0 0 240 636" style="enable-background:new 0 0 240 636;" xml:space="preserve">
<style type="text/css">
	.st0{opacity:0.1;}
	.st1{fill:#242424;}
	.st2{fill:#050505;}
	.st3{fill:#080808;}
	.st4{fill:#060606;}
	.st5{fill:#424242;}
	.st6{fill:#3B3B3B;}
	.st7{fill:#515151;}
	.st8{fill:#444444;}
	.st9{fill:#333333;}
	.st10{fill:#181818;}
	.st11{fill:#4C4C4C;}
	.st12{fill:#1F1F1F;}
	.st13{fill:#2B2B2B;}
	.st14{fill:#8D8D8D;}
	.st15{fill:#111111;}
	.st16{fill:#9C9C9C;}
	.st17{fill:#121212;}
	.st18{fill:#0A0A0A;}
	.st19{fill:#0D0D0D;}
	.st20{fill:#161616;}
	.st21{fill:#676767;}
	.st22{fill:#0F0F0F;}
	.st23{fill:#151515;}
	.st24{fill:#232323;}
	.st25{fill:#5A5A5A;}
	.st26{fill:#505050;}
	.st27{fill:#3F3F3F;}
	.st28{fill:#3D3D3D;}
	.st29{fill:#2E2E2E;}
	.st30{fill:#404040;}
	.st31{fill:#272727;}
	.st32{fill:#353535;}
	.st33{fill:#303030;}
	.st34{fill:#656565;}
	.st35{fill:#474747;}
	.st36{fill:#6D6D6D;}
	.st37{fill:#626262;}
	.st38{fill:#131313;}
	.st39{fill:#363636;}
	.st40{fill:#929292;}
	.st41{fill:#282828;}
	.st42{fill:#171717;}
	.st43{fill:#737373;}
	.st44{fill:#1D1D1D;}
	.st45{fill:#494949;}
	.st46{fill:#373737;}
	.st47{fill:#999999;}
	.st48{fill:#484848;}
	.st49{fill:#262626;}
	.st50{fill:#383838;}
	.st51{fill:#454545;}
	.st52{fill:#828282;}
	.st53{fill:#909090;}
	.st54{fill:#616161;}
	.st55{fill:#2F2F2F;}
	.st56{fill:#2C2C2C;}
	.st57{fill:#343434;}
	.st58{fill:#7A7A7A;}
	.st59{fill:#878787;}
	.st60{fill:#252525;}
	.st61{fill:#3A3A3A;}
	.st62{fill:#666666;}
	.st63{fill:#606060;}
	.st64{fill:#6C6C6C;}
	.st65{fill:#969696;}
	.st66{fill:#848484;}
	.st67{fill:#090909;}
	.st68{fill:#212121;}
	.st69{fill:#717171;}
	.st70{fill:#4F4F4F;}
</style>
<g class="st0">
	<polygon class="st1" points="22.35,606.15 24.55,610.05 26.75,606.15 	"/>
	<polygon class="st1" points="51.15,608.75 48.95,604.85 46.75,608.75 	"/>
	<polygon class="st2" points="121.55,607.25 121.85,607.85 122.15,607.25 	"/>
	<polygon class="st3" points="146.65,607.75 146.15,606.85 145.65,607.75 	"/>
	<polygon class="st4" points="170.05,607.25 170.45,607.85 170.85,607.25 	"/>
	<polygon class="st5" points="198.85,609.85 194.75,602.65 190.65,609.85 	"/>
	<polygon class="st1" points="22.35,582.95 24.55,586.85 26.75,582.95 	"/>
	<polygon class="st1" points="51.15,585.55 48.95,581.65 46.75,585.55 	"/>
	<polygon class="st2" points="121.55,584.05 121.85,584.65 122.15,584.05 	"/>
	<polygon class="st3" points="146.65,584.55 146.15,583.65 145.65,584.55 	"/>
	<polygon class="st4" points="170.05,584.05 170.45,584.65 170.85,584.05 	"/>
	<polygon class="st5" points="198.85,586.65 194.75,579.45 190.65,586.65 	"/>
	<polygon class="st1" points="22.35,559.85 24.55,563.75 26.75,559.85 	"/>
	<polygon class="st1" points="51.15,562.45 48.95,558.55 46.75,562.45 	"/>
	<polygon class="st2" points="121.55,560.95 121.85,561.55 122.15,560.95 	"/>
	<polygon class="st3" points="146.65,561.45 146.15,560.55 145.65,561.45 	"/>
	<polygon class="st4" points="170.05,560.95 170.45,561.55 170.85,560.95 	"/>
	<polygon class="st5" points="198.85,563.55 194.75,556.35 190.65,563.55 	"/>
	<polygon class="st6" points="20.85,535.85 24.55,542.15 28.25,535.85 	"/>
	<polygon class="st6" points="52.65,540.05 48.95,533.75 45.25,540.05 	"/>
	<polygon class="st7" points="68.25,535.05 73.25,543.75 78.25,535.05 	"/>
	<polygon class="st8" points="117.65,535.55 121.85,542.85 126.05,535.55 	"/>
	<polygon class="st9" points="167.25,536.15 170.45,541.65 173.65,536.15 	"/>
	<polygon class="st4" points="24.15,514.65 24.55,515.25 24.95,514.65 	"/>
	<polygon class="st4" points="49.35,515.05 48.95,514.45 48.55,515.05 	"/>
	<polygon class="st10" points="71.75,513.95 73.25,516.55 74.75,513.95 	"/>
	<polygon class="st11" points="102.25,517.55 97.55,509.35 92.85,517.55 	"/>
	<polygon class="st12" points="119.95,513.75 121.85,517.05 123.75,513.75 	"/>
	<polygon class="st13" points="148.85,516.35 146.15,511.75 143.45,516.35 	"/>
	<polygon class="st3" points="169.95,514.55 170.45,515.45 170.95,514.55 	"/>
	<polygon class="st14" points="203.55,519.95 194.75,504.75 185.95,519.95 	"/>
	<polygon class="st15" points="23.45,491.05 24.55,492.85 25.65,491.05 	"/>
	<polygon class="st15" points="50.05,492.25 48.95,490.45 47.85,492.25 	"/>
	<polygon class="st8" points="101.75,494.05 97.55,486.75 93.35,494.05 	"/>
	<polygon class="st3" points="121.35,491.35 121.85,492.25 122.35,491.35 	"/>
	<polygon class="st16" points="155.85,497.25 146.15,480.45 136.45,497.25 	"/>
	<polygon class="st17" points="169.35,491.05 170.45,492.95 171.55,491.05 	"/>
	<polygon class="st15" points="217.95,491.05 219.05,492.85 220.15,491.05 	"/>
	<polygon class="st15" points="72.15,467.95 73.25,469.75 74.35,467.95 	"/>
	<polygon class="st18" points="98.15,468.95 97.55,467.85 96.95,468.95 	"/>
	<polygon class="st19" points="121.05,468.05 121.85,469.45 122.65,468.05 	"/>
	<polygon class="st20" points="147.55,469.35 146.15,466.95 144.75,469.35 	"/>
	<polygon class="st21" points="164.05,464.85 170.45,475.95 176.85,464.85 	"/>
	<polygon class="st22" points="218.15,468.05 219.05,469.65 219.95,468.05 	"/>
	<polygon class="st23" points="23.25,444.55 24.55,446.85 25.85,444.55 	"/>
	<polygon class="st23" points="50.25,446.15 48.95,443.85 47.65,446.15 	"/>
	<polygon class="st24" points="71.05,444.05 73.25,447.85 75.45,444.05 	"/>
	<polygon class="st25" points="103.15,448.55 97.55,438.85 91.95,448.55 	"/>
	<polygon class="st7" points="116.85,442.45 121.85,451.15 126.85,442.45 	"/>
	<polygon class="st26" points="151.15,448.25 146.15,439.55 141.15,448.25 	"/>
	<polygon class="st8" points="166.25,442.95 170.45,450.25 174.65,442.95 	"/>
	<polygon class="st3" points="195.25,445.65 194.75,444.75 194.25,445.65 	"/>
	<polygon class="st17" points="217.95,444.75 219.05,446.65 220.15,444.75 	"/>
	<polygon class="st27" points="20.65,419.95 24.55,426.75 28.45,419.95 	"/>
	<polygon class="st27" points="52.85,424.55 48.95,417.75 45.05,424.55 	"/>
	<polygon class="st28" points="69.45,420.05 73.25,426.65 77.05,420.05 	"/>
	<polygon class="st29" points="100.45,423.95 97.55,418.95 94.65,423.95 	"/>
	<polygon class="st7" points="116.85,419.35 121.85,428.05 126.85,419.35 	"/>
	<polygon class="st21" points="152.55,425.95 146.15,414.85 139.75,425.95 	"/>
	<polygon class="st30" points="198.75,424.55 194.75,417.65 190.75,424.55 	"/>
	<polygon class="st31" points="216.65,420.85 219.05,425.05 221.45,420.85 	"/>
	<polygon class="st32" points="21.25,397.15 24.55,402.85 27.85,397.15 	"/>
	<polygon class="st32" points="52.25,400.95 48.95,395.25 45.65,400.95 	"/>
	<polygon class="st33" points="70.25,397.35 73.25,402.55 76.25,397.35 	"/>
	<polygon class="st12" points="99.45,400.15 97.55,396.85 95.65,400.15 	"/>
	<polygon class="st34" points="115.55,395.45 121.85,406.35 128.15,395.45 	"/>
	<polygon class="st35" points="150.55,401.65 146.15,393.95 141.75,401.65 	"/>
	<polygon class="st36" points="163.65,395.15 170.45,406.85 177.25,395.15 	"/>
	<polygon class="st35" points="199.15,401.65 194.75,393.95 190.35,401.65 	"/>
	<polygon class="st37" points="18.45,372.45 24.55,383.05 30.65,372.45 	"/>
	<polygon class="st37" points="55.05,379.45 48.95,368.85 42.85,379.45 	"/>
	<polygon class="st7" points="68.25,373.05 73.25,381.75 78.25,373.05 	"/>
	<polygon class="st38" points="98.75,376.65 97.55,374.55 96.35,376.65 	"/>
	<polygon class="st38" points="120.65,375.25 121.85,377.35 123.05,375.25 	"/>
	<polygon class="st8" points="150.35,378.35 146.15,371.05 141.95,378.35 	"/>
	<polygon class="st39" points="167.05,374.05 170.45,379.85 173.85,374.05 	"/>
	<polygon class="st40" points="203.85,381.25 194.75,365.45 185.65,381.25 	"/>
	<polygon class="st41" points="216.55,374.55 219.05,378.85 221.55,374.55 	"/>
	<polygon class="st42" points="120.45,351.95 121.85,354.45 123.25,351.95 	"/>
	<polygon class="st30" points="150.15,355.05 146.15,348.15 142.15,355.05 	"/>
	<polygon class="st25" points="164.85,349.55 170.45,359.25 176.05,349.55 	"/>
	<polygon class="st43" points="201.95,356.85 194.75,344.45 187.55,356.85 	"/>
	<polygon class="st44" points="22.75,328.65 24.55,331.75 26.35,328.65 	"/>
	<polygon class="st44" points="50.75,330.65 48.95,327.55 47.15,330.65 	"/>
	<polygon class="st41" points="70.75,328.25 73.25,332.55 75.75,328.25 	"/>
	<polygon class="st31" points="99.95,331.05 97.55,326.85 95.15,331.05 	"/>
	<polygon class="st30" points="117.85,327.35 121.85,334.25 125.85,327.35 	"/>
	<polygon class="st11" points="150.85,332.35 146.15,324.15 141.45,332.35 	"/>
	<polygon class="st45" points="165.85,327.05 170.45,334.95 175.05,327.05 	"/>
	<polygon class="st46" points="198.15,331.65 194.75,325.65 191.35,331.65 	"/>
	<polygon class="st13" points="100.25,307.95 97.55,303.35 94.85,307.95 	"/>
	<polygon class="st47" points="112.35,300.95 121.85,317.45 131.35,300.95 	"/>
	<polygon class="st44" points="147.95,307.45 146.15,304.35 144.35,307.45 	"/>
	<polygon class="st48" points="165.95,303.85 170.45,311.65 174.95,303.85 	"/>
	<polygon class="st33" points="197.75,308.15 194.75,302.95 191.75,308.15 	"/>
	<polygon class="st24" points="216.85,305.15 219.05,308.95 221.25,305.15 	"/>
	<polygon class="st49" points="70.85,281.95 73.25,286.05 75.65,281.95 	"/>
	<polygon class="st50" points="101.05,285.35 97.55,279.35 94.05,285.35 	"/>
	<polygon class="st51" points="117.55,280.85 121.85,288.35 126.15,280.85 	"/>
	<polygon class="st52" points="154.25,288.05 146.15,273.95 138.05,288.05 	"/>
	<polygon class="st13" points="167.75,281.85 170.45,286.45 173.15,281.85 	"/>
	<polygon class="st53" points="203.75,288.55 194.75,272.95 185.75,288.55 	"/>
	<polygon class="st44" points="71.45,259.25 73.25,262.35 75.05,259.25 	"/>
	<polygon class="st20" points="120.45,259.45 121.85,261.85 123.25,259.45 	"/>
	<polygon class="st54" points="152.15,263.75 146.15,253.25 140.15,263.75 	"/>
	<polygon class="st55" points="167.55,258.55 170.45,263.65 173.35,258.55 	"/>
	<polygon class="st34" points="201.05,263.85 194.75,252.95 188.45,263.85 	"/>
	<polygon class="st56" points="21.85,235.45 24.55,240.25 27.25,235.45 	"/>
	<polygon class="st56" points="51.65,238.65 48.95,233.85 46.25,238.65 	"/>
	<polygon class="st57" points="70.05,235.15 73.25,240.75 76.45,235.15 	"/>
	<polygon class="st9" points="100.75,238.85 97.55,233.35 94.35,238.85 	"/>
	<polygon class="st15" points="120.75,236.45 121.85,238.25 122.95,236.45 	"/>
	<polygon class="st58" points="153.75,241.45 146.15,228.25 138.55,241.45 	"/>
	<polygon class="st59" points="162.05,232.15 170.45,246.75 178.85,232.15 	"/>
	<polygon class="st14" points="203.55,242.15 194.75,226.95 185.95,242.15 	"/>
	<polygon class="st46" points="118.45,211.95 121.85,217.95 125.25,211.95 	"/>
	<polygon class="st60" points="148.45,215.25 146.15,211.25 143.85,215.25 	"/>
	<polygon class="st30" points="166.45,211.65 170.45,218.55 174.45,211.65 	"/>
	<polygon class="st61" points="198.35,216.05 194.75,209.75 191.15,216.05 	"/>
	<polygon class="st62" points="103.95,194.45 97.55,183.45 91.15,194.45 	"/>
	<polygon class="st63" points="115.85,187.25 121.85,197.65 127.85,187.25 	"/>
	<polygon class="st48" points="150.65,193.35 146.15,185.55 141.65,193.35 	"/>
	<polygon class="st64" points="163.75,186.85 170.45,198.55 177.15,186.85 	"/>
	<polygon class="st16" points="204.45,196.35 194.75,179.55 185.05,196.35 	"/>
	<polygon class="st48" points="150.65,170.25 146.15,162.45 141.65,170.25 	"/>
	<polygon class="st65" points="161.05,162.25 170.45,178.45 179.85,162.25 	"/>
	<polygon class="st46" points="198.15,169.65 194.75,163.65 191.35,169.65 	"/>
	<polygon class="st66" points="202.95,126.15 194.75,111.85 186.55,126.15 	"/>
	<polygon class="st67" points="195.35,75.35 194.75,74.45 194.15,75.35 	"/>
	<polygon class="st68" points="216.95,73.85 219.05,77.45 221.15,73.85 	"/>
	<polygon class="st69" points="163.45,47.75 170.45,59.95 177.45,47.75 	"/>
	<polygon class="st20" points="196.15,52.65 194.75,50.25 193.35,52.65 	"/>
	<polygon class="st70" points="165.55,25.95 170.45,34.45 175.35,25.95 	"/>
</g>
</svg>
