<?xml version="1.0" encoding="utf-8"?>
<!-- Generator: Adobe Illustrator 24.1.1, SVG Export Plug-In . SVG Version: 6.00 Build 0)  -->
<svg version="1.1" id="Layer_1" xmlns="http://www.w3.org/2000/svg" xmlns:xlink="http://www.w3.org/1999/xlink" x="0px" y="0px"
	 viewBox="0 0 240 636" style="enable-background:new 0 0 240 636;" xml:space="preserve">
<style type="text/css">
	.st0{fill:#EB6607;}
</style>
<g>
	<g>
		<polygon class="st0" points="217.65,606.15 215.45,610.05 213.25,606.15 		"/>
		<polygon class="st0" points="188.85,608.75 191.05,604.85 193.25,608.75 		"/>
		<polygon class="st0" points="118.45,607.25 118.15,607.85 117.85,607.25 		"/>
		<polygon class="st0" points="93.35,607.75 93.85,606.85 94.35,607.75 		"/>
		<polygon class="st0" points="69.95,607.25 69.55,607.85 69.15,607.25 		"/>
		<polygon class="st0" points="41.15,609.85 45.25,602.65 49.35,609.85 		"/>
		<polygon class="st0" points="217.65,582.95 215.45,586.85 213.25,582.95 		"/>
		<polygon class="st0" points="188.85,585.55 191.05,581.65 193.25,585.55 		"/>
		<polygon class="st0" points="118.45,584.05 118.15,584.65 117.85,584.05 		"/>
		<polygon class="st0" points="93.35,584.55 93.85,583.65 94.35,584.55 		"/>
		<polygon class="st0" points="69.95,584.05 69.55,584.65 69.15,584.05 		"/>
		<polygon class="st0" points="41.15,586.65 45.25,579.45 49.35,586.65 		"/>
		<polygon class="st0" points="217.65,559.85 215.45,563.75 213.25,559.85 		"/>
		<polygon class="st0" points="188.85,562.45 191.05,558.55 193.25,562.45 		"/>
		<polygon class="st0" points="118.45,560.95 118.15,561.55 117.85,560.95 		"/>
		<polygon class="st0" points="93.35,561.45 93.85,560.55 94.35,561.45 		"/>
		<polygon class="st0" points="69.95,560.95 69.55,561.55 69.15,560.95 		"/>
		<polygon class="st0" points="41.15,563.55 45.25,556.35 49.35,563.55 		"/>
		<polygon class="st0" points="219.15,535.85 215.45,542.15 211.75,535.85 		"/>
		<polygon class="st0" points="187.35,540.05 191.05,533.75 194.75,540.05 		"/>
		<polygon class="st0" points="171.75,535.05 166.75,543.75 161.75,535.05 		"/>
		<polygon class="st0" points="122.35,535.55 118.15,542.85 113.95,535.55 		"/>
		<polygon class="st0" points="72.75,536.15 69.55,541.65 66.35,536.15 		"/>
		<polygon class="st0" points="215.85,514.65 215.45,515.25 215.05,514.65 		"/>
		<polygon class="st0" points="190.65,515.05 191.05,514.45 191.45,515.05 		"/>
		<polygon class="st0" points="168.25,513.95 166.75,516.55 165.25,513.95 		"/>
		<polygon class="st0" points="137.75,517.55 142.45,509.35 147.15,517.55 		"/>
		<polygon class="st0" points="120.05,513.75 118.15,517.05 116.25,513.75 		"/>
		<polygon class="st0" points="91.15,516.35 93.85,511.75 96.55,516.35 		"/>
		<polygon class="st0" points="70.05,514.55 69.55,515.45 69.05,514.55 		"/>
		<polygon class="st0" points="36.45,519.95 45.25,504.75 54.05,519.95 		"/>
		<polygon class="st0" points="216.55,491.05 215.45,492.85 214.35,491.05 		"/>
		<polygon class="st0" points="189.95,492.25 191.05,490.45 192.15,492.25 		"/>
		<polygon class="st0" points="138.25,494.05 142.45,486.75 146.65,494.05 		"/>
		<polygon class="st0" points="118.65,491.35 118.15,492.25 117.65,491.35 		"/>
		<polygon class="st0" points="84.15,497.25 93.85,480.45 103.55,497.25 		"/>
		<polygon class="st0" points="70.65,491.05 69.55,492.95 68.45,491.05 		"/>
		<polygon class="st0" points="22.05,491.05 20.95,492.85 19.85,491.05 		"/>
		<polygon class="st0" points="167.85,467.95 166.75,469.75 165.65,467.95 		"/>
		<polygon class="st0" points="141.85,468.95 142.45,467.85 143.05,468.95 		"/>
		<polygon class="st0" points="118.95,468.05 118.15,469.45 117.35,468.05 		"/>
		<polygon class="st0" points="92.45,469.35 93.85,466.95 95.25,469.35 		"/>
		<polygon class="st0" points="75.95,464.85 69.55,475.95 63.15,464.85 		"/>
		<polygon class="st0" points="21.85,468.05 20.95,469.65 20.05,468.05 		"/>
		<polygon class="st0" points="216.75,444.55 215.45,446.85 214.15,444.55 		"/>
		<polygon class="st0" points="189.75,446.15 191.05,443.85 192.35,446.15 		"/>
		<polygon class="st0" points="168.95,444.05 166.75,447.85 164.55,444.05 		"/>
		<polygon class="st0" points="136.85,448.55 142.45,438.85 148.05,448.55 		"/>
		<polygon class="st0" points="123.15,442.45 118.15,451.15 113.15,442.45 		"/>
		<polygon class="st0" points="88.85,448.25 93.85,439.55 98.85,448.25 		"/>
		<polygon class="st0" points="73.75,442.95 69.55,450.25 65.35,442.95 		"/>
		<polygon class="st0" points="44.75,445.65 45.25,444.75 45.75,445.65 		"/>
		<polygon class="st0" points="22.05,444.75 20.95,446.65 19.85,444.75 		"/>
		<polygon class="st0" points="219.35,419.95 215.45,426.75 211.55,419.95 		"/>
		<polygon class="st0" points="187.15,424.55 191.05,417.75 194.95,424.55 		"/>
		<polygon class="st0" points="170.55,420.05 166.75,426.65 162.95,420.05 		"/>
		<polygon class="st0" points="139.55,423.95 142.45,418.95 145.35,423.95 		"/>
		<polygon class="st0" points="123.15,419.35 118.15,428.05 113.15,419.35 		"/>
		<polygon class="st0" points="87.45,425.95 93.85,414.85 100.25,425.95 		"/>
		<polygon class="st0" points="41.25,424.55 45.25,417.65 49.25,424.55 		"/>
		<polygon class="st0" points="23.35,420.85 20.95,425.05 18.55,420.85 		"/>
		<polygon class="st0" points="218.75,397.15 215.45,402.85 212.15,397.15 		"/>
		<polygon class="st0" points="187.75,400.95 191.05,395.25 194.35,400.95 		"/>
		<polygon class="st0" points="169.75,397.35 166.75,402.55 163.75,397.35 		"/>
		<polygon class="st0" points="140.55,400.15 142.45,396.85 144.35,400.15 		"/>
		<polygon class="st0" points="124.45,395.45 118.15,406.35 111.85,395.45 		"/>
		<polygon class="st0" points="89.45,401.65 93.85,393.95 98.25,401.65 		"/>
		<polygon class="st0" points="76.35,395.15 69.55,406.85 62.75,395.15 		"/>
		<polygon class="st0" points="40.85,401.65 45.25,393.95 49.65,401.65 		"/>
		<polygon class="st0" points="221.55,372.45 215.45,383.05 209.35,372.45 		"/>
		<polygon class="st0" points="184.95,379.45 191.05,368.85 197.15,379.45 		"/>
		<polygon class="st0" points="171.75,373.05 166.75,381.75 161.75,373.05 		"/>
		<polygon class="st0" points="141.25,376.65 142.45,374.55 143.65,376.65 		"/>
		<polygon class="st0" points="119.35,375.25 118.15,377.35 116.95,375.25 		"/>
		<polygon class="st0" points="89.65,378.35 93.85,371.05 98.05,378.35 		"/>
		<polygon class="st0" points="72.95,374.05 69.55,379.85 66.15,374.05 		"/>
		<polygon class="st0" points="36.15,381.25 45.25,365.45 54.35,381.25 		"/>
		<polygon class="st0" points="23.45,374.55 20.95,378.85 18.45,374.55 		"/>
		<polygon class="st0" points="119.55,351.95 118.15,354.45 116.75,351.95 		"/>
		<polygon class="st0" points="89.85,355.05 93.85,348.15 97.85,355.05 		"/>
		<polygon class="st0" points="75.15,349.55 69.55,359.25 63.95,349.55 		"/>
		<polygon class="st0" points="38.05,356.85 45.25,344.45 52.45,356.85 		"/>
		<polygon class="st0" points="217.25,328.65 215.45,331.75 213.65,328.65 		"/>
		<polygon class="st0" points="189.25,330.65 191.05,327.55 192.85,330.65 		"/>
		<polygon class="st0" points="169.25,328.25 166.75,332.55 164.25,328.25 		"/>
		<polygon class="st0" points="140.05,331.05 142.45,326.85 144.85,331.05 		"/>
		<polygon class="st0" points="122.15,327.35 118.15,334.25 114.15,327.35 		"/>
		<polygon class="st0" points="89.15,332.35 93.85,324.15 98.55,332.35 		"/>
		<polygon class="st0" points="74.15,327.05 69.55,334.95 64.95,327.05 		"/>
		<polygon class="st0" points="41.85,331.65 45.25,325.65 48.65,331.65 		"/>
		<polygon class="st0" points="139.75,307.95 142.45,303.35 145.15,307.95 		"/>
		<polygon class="st0" points="127.65,300.95 118.15,317.45 108.65,300.95 		"/>
		<polygon class="st0" points="92.05,307.45 93.85,304.35 95.65,307.45 		"/>
		<polygon class="st0" points="74.05,303.85 69.55,311.65 65.05,303.85 		"/>
		<polygon class="st0" points="42.25,308.15 45.25,302.95 48.25,308.15 		"/>
		<polygon class="st0" points="23.15,305.15 20.95,308.95 18.75,305.15 		"/>
		<polygon class="st0" points="169.15,281.95 166.75,286.05 164.35,281.95 		"/>
		<polygon class="st0" points="138.95,285.35 142.45,279.35 145.95,285.35 		"/>
		<polygon class="st0" points="122.45,280.85 118.15,288.35 113.85,280.85 		"/>
		<polygon class="st0" points="85.75,288.05 93.85,273.95 101.95,288.05 		"/>
		<polygon class="st0" points="72.25,281.85 69.55,286.45 66.85,281.85 		"/>
		<polygon class="st0" points="36.25,288.55 45.25,272.95 54.25,288.55 		"/>
		<polygon class="st0" points="168.55,259.25 166.75,262.35 164.95,259.25 		"/>
		<polygon class="st0" points="119.55,259.45 118.15,261.85 116.75,259.45 		"/>
		<polygon class="st0" points="87.85,263.75 93.85,253.25 99.85,263.75 		"/>
		<polygon class="st0" points="72.45,258.55 69.55,263.65 66.65,258.55 		"/>
		<polygon class="st0" points="38.95,263.85 45.25,252.95 51.55,263.85 		"/>
		<polygon class="st0" points="218.15,235.45 215.45,240.25 212.75,235.45 		"/>
		<polygon class="st0" points="188.35,238.65 191.05,233.85 193.75,238.65 		"/>
		<polygon class="st0" points="169.95,235.15 166.75,240.75 163.55,235.15 		"/>
		<polygon class="st0" points="139.25,238.85 142.45,233.35 145.65,238.85 		"/>
		<polygon class="st0" points="119.25,236.45 118.15,238.25 117.05,236.45 		"/>
		<polygon class="st0" points="86.25,241.45 93.85,228.25 101.45,241.45 		"/>
		<polygon class="st0" points="77.95,232.15 69.55,246.75 61.15,232.15 		"/>
		<polygon class="st0" points="36.45,242.15 45.25,226.95 54.05,242.15 		"/>
		<polygon class="st0" points="121.55,211.95 118.15,217.95 114.75,211.95 		"/>
		<polygon class="st0" points="91.55,215.25 93.85,211.25 96.15,215.25 		"/>
		<polygon class="st0" points="73.55,211.65 69.55,218.55 65.55,211.65 		"/>
		<polygon class="st0" points="41.65,216.05 45.25,209.75 48.85,216.05 		"/>
		<polygon class="st0" points="136.05,194.45 142.45,183.45 148.85,194.45 		"/>
		<polygon class="st0" points="124.15,187.25 118.15,197.65 112.15,187.25 		"/>
		<polygon class="st0" points="89.35,193.35 93.85,185.55 98.35,193.35 		"/>
		<polygon class="st0" points="76.25,186.85 69.55,198.55 62.85,186.85 		"/>
		<polygon class="st0" points="35.55,196.35 45.25,179.55 54.95,196.35 		"/>
		<polygon class="st0" points="89.35,170.25 93.85,162.45 98.35,170.25 		"/>
		<polygon class="st0" points="78.95,162.25 69.55,178.45 60.15,162.25 		"/>
		<polygon class="st0" points="41.85,169.65 45.25,163.65 48.65,169.65 		"/>
		<polygon class="st0" points="37.05,126.15 45.25,111.85 53.45,126.15 		"/>
		<polygon class="st0" points="44.65,75.35 45.25,74.45 45.85,75.35 		"/>
		<polygon class="st0" points="23.05,73.85 20.95,77.45 18.85,73.85 		"/>
		<polygon class="st0" points="76.55,47.75 69.55,59.95 62.55,47.75 		"/>
		<polygon class="st0" points="43.85,52.65 45.25,50.25 46.65,52.65 		"/>
		<polygon class="st0" points="74.45,25.95 69.55,34.45 64.65,25.95 		"/>
	</g>
</g>
</svg>
